<svg width="34" height="34" viewBox="0 0 34 34" fill="none" xmlns="http://www.w3.org/2000/svg">
<g clip-path="url(#clip0_106_90)">
<path d="M15.64 27.37C16.5467 29.4383 17 31.6483 17 34C17 31.6483 17.4392 29.4383 18.3175 27.37C19.2242 25.3017 20.4425 23.5025 21.9725 21.9725C23.5025 20.4425 25.3017 19.2383 27.37 18.36C29.4383 17.4533 31.6483 17 34 17C31.6483 17 29.4383 16.5608 27.37 15.6825C25.3569 14.8145 23.5257 13.5745 21.9725 12.0275C20.4255 10.4743 19.1855 8.64306 18.3175 6.63C17.4392 4.56167 17 2.35167 17 0C17 2.35167 16.5467 4.56167 15.64 6.63C14.7617 8.69833 13.5575 10.4975 12.0275 12.0275C10.4743 13.5745 8.64306 14.8145 6.63 15.6825C4.56167 16.5608 2.35167 17 0 17C2.35167 17 4.56167 17.4533 6.63 18.36C8.69833 19.2383 10.4975 20.4425 12.0275 21.9725C13.5575 23.5025 14.7617 25.3017 15.64 27.37Z" fill="white"/>
</g>
<defs>
<clipPath id="clip0_106_90">
<rect width="34" height="34" fill="white"/>
</clipPath>
</defs>
</svg>
